<mxfile host="app.diagrams.net" modified="2021-11-09T10:30:09.159Z" agent="5.0 (Macintosh; Intel Mac OS X 10_15_7) AppleWebKit/537.36 (KHTML, like Gecko) Chrome/86.0.4240.193 Safari/537.36" etag="DV-LK4Pi5d6AYKwtGL2F" version="15.7.0" type="github">
  <diagram id="FIARPuL7rK5t55kT-bK6" name="Page-1">
    <mxGraphModel dx="946" dy="537" grid="1" gridSize="10" guides="1" tooltips="1" connect="1" arrows="1" fold="1" page="1" pageScale="1" pageWidth="827" pageHeight="1169" math="0" shadow="0">
      <root>
        <mxCell id="0" />
        <mxCell id="1" parent="0" />
        <mxCell id="oOUHtN4aPDvEVTGoeREF-14" value="" style="html=1;align=center;verticalAlign=top;rounded=1;absoluteArcSize=1;arcSize=20;dashed=1;" vertex="1" parent="1">
          <mxGeometry x="433.5" y="100" width="270" height="340" as="geometry" />
        </mxCell>
        <mxCell id="oOUHtN4aPDvEVTGoeREF-13" value="" style="html=1;align=center;verticalAlign=top;rounded=1;absoluteArcSize=1;arcSize=20;dashed=1;" vertex="1" parent="1">
          <mxGeometry x="70" y="100" width="270" height="340" as="geometry" />
        </mxCell>
        <mxCell id="oOUHtN4aPDvEVTGoeREF-8" style="edgeStyle=orthogonalEdgeStyle;rounded=0;orthogonalLoop=1;jettySize=auto;html=1;exitX=1;exitY=0.5;exitDx=0;exitDy=0;entryX=0;entryY=0.5;entryDx=0;entryDy=0;" edge="1" parent="1" source="oOUHtN4aPDvEVTGoeREF-2" target="oOUHtN4aPDvEVTGoeREF-3">
          <mxGeometry relative="1" as="geometry" />
        </mxCell>
        <mxCell id="oOUHtN4aPDvEVTGoeREF-2" value="&lt;pre&gt;DefaultMQPushConsumer&lt;/pre&gt;" style="rounded=0;whiteSpace=wrap;html=1;fillColor=#ffe6cc;strokeColor=#d79b00;" vertex="1" parent="1">
          <mxGeometry x="100" y="140" width="220" height="60" as="geometry" />
        </mxCell>
        <mxCell id="oOUHtN4aPDvEVTGoeREF-10" style="rounded=0;orthogonalLoop=1;jettySize=auto;html=1;exitX=0;exitY=0.5;exitDx=0;exitDy=0;entryX=1;entryY=0.5;entryDx=0;entryDy=0;" edge="1" parent="1" source="oOUHtN4aPDvEVTGoeREF-3" target="oOUHtN4aPDvEVTGoeREF-5">
          <mxGeometry relative="1" as="geometry" />
        </mxCell>
        <mxCell id="oOUHtN4aPDvEVTGoeREF-3" value="&lt;span&gt;DefaultMessageStore#getMessage&lt;br&gt;根据tag的hashCode进行过滤&lt;br&gt;&lt;/span&gt;" style="rounded=0;whiteSpace=wrap;html=1;fillColor=#dae8fc;strokeColor=#6c8ebf;" vertex="1" parent="1">
          <mxGeometry x="460" y="140" width="217" height="60" as="geometry" />
        </mxCell>
        <mxCell id="oOUHtN4aPDvEVTGoeREF-11" style="edgeStyle=none;rounded=0;orthogonalLoop=1;jettySize=auto;html=1;exitX=0.5;exitY=1;exitDx=0;exitDy=0;entryX=0.5;entryY=0;entryDx=0;entryDy=0;" edge="1" parent="1" source="oOUHtN4aPDvEVTGoeREF-5" target="oOUHtN4aPDvEVTGoeREF-7">
          <mxGeometry relative="1" as="geometry" />
        </mxCell>
        <mxCell id="oOUHtN4aPDvEVTGoeREF-5" value="PullCallback&lt;br&gt;（回调接口，收到消息进行处理）&lt;br&gt;根据订阅的tag再次过滤" style="rounded=0;whiteSpace=wrap;html=1;fillColor=#ffe6cc;strokeColor=#d79b00;" vertex="1" parent="1">
          <mxGeometry x="100" y="240" width="220" height="60" as="geometry" />
        </mxCell>
        <mxCell id="oOUHtN4aPDvEVTGoeREF-7" value="&lt;span style=&quot;text-align: left&quot;&gt;将过滤后的消息传入&lt;br&gt;&lt;/span&gt;&lt;span style=&quot;text-align: left&quot;&gt;MessageListener&lt;br&gt;&lt;/span&gt;&lt;span style=&quot;text-align: left&quot;&gt;开始执行业务逻辑&lt;br&gt;&lt;/span&gt;" style="rounded=0;whiteSpace=wrap;html=1;fillColor=#ffe6cc;strokeColor=#d79b00;" vertex="1" parent="1">
          <mxGeometry x="100" y="350" width="220" height="60" as="geometry" />
        </mxCell>
        <mxCell id="oOUHtN4aPDvEVTGoeREF-9" value="开始拉取消息" style="text;html=1;align=center;verticalAlign=middle;resizable=0;points=[];autosize=1;strokeColor=none;fillColor=none;" vertex="1" parent="1">
          <mxGeometry x="335" y="130" width="90" height="20" as="geometry" />
        </mxCell>
        <mxCell id="oOUHtN4aPDvEVTGoeREF-12" value="返回消息" style="text;html=1;align=center;verticalAlign=middle;resizable=0;points=[];autosize=1;strokeColor=none;fillColor=none;" vertex="1" parent="1">
          <mxGeometry x="370" y="230" width="60" height="20" as="geometry" />
        </mxCell>
        <mxCell id="oOUHtN4aPDvEVTGoeREF-15" value="Consumer" style="text;html=1;strokeColor=none;fillColor=none;align=center;verticalAlign=middle;whiteSpace=wrap;rounded=0;" vertex="1" parent="1">
          <mxGeometry x="175" y="50" width="60" height="30" as="geometry" />
        </mxCell>
        <mxCell id="oOUHtN4aPDvEVTGoeREF-16" value="Broker" style="text;html=1;strokeColor=none;fillColor=none;align=center;verticalAlign=middle;whiteSpace=wrap;rounded=0;" vertex="1" parent="1">
          <mxGeometry x="545" y="49" width="60" height="30" as="geometry" />
        </mxCell>
      </root>
    </mxGraphModel>
  </diagram>
</mxfile>
